<mxfile host="app.diagrams.net" agent="Mozilla/5.0 (Windows NT 10.0; Win64; x64) AppleWebKit/537.36 (KHTML, like Gecko) Chrome/136.0.0.0 Safari/537.36" version="26.2.14">
  <diagram name="Page-1" id="BTD9ZUsIXiyfRwuOA9kN">
    <mxGraphModel dx="719" dy="434" grid="1" gridSize="10" guides="1" tooltips="1" connect="1" arrows="1" fold="1" page="1" pageScale="1" pageWidth="850" pageHeight="1100" math="0" shadow="0">
      <root>
        <mxCell id="0" />
        <mxCell id="1" parent="0" />
        <mxCell id="_hEubleAi91EJIuYK54v-1" value="" style="endArrow=none;html=1;rounded=0;" edge="1" parent="1">
          <mxGeometry width="50" height="50" relative="1" as="geometry">
            <mxPoint x="200" y="440" as="sourcePoint" />
            <mxPoint x="200" y="160" as="targetPoint" />
          </mxGeometry>
        </mxCell>
        <mxCell id="_hEubleAi91EJIuYK54v-2" value="" style="endArrow=none;html=1;rounded=0;" edge="1" parent="1">
          <mxGeometry width="50" height="50" relative="1" as="geometry">
            <mxPoint x="200" y="440" as="sourcePoint" />
            <mxPoint x="480" y="440" as="targetPoint" />
          </mxGeometry>
        </mxCell>
        <mxCell id="_hEubleAi91EJIuYK54v-3" value="" style="endArrow=none;html=1;rounded=0;" edge="1" parent="1" source="_hEubleAi91EJIuYK54v-8">
          <mxGeometry width="50" height="50" relative="1" as="geometry">
            <mxPoint x="200" y="440" as="sourcePoint" />
            <mxPoint x="400" y="240" as="targetPoint" />
          </mxGeometry>
        </mxCell>
        <mxCell id="_hEubleAi91EJIuYK54v-9" value="" style="ellipse;whiteSpace=wrap;html=1;aspect=fixed;" vertex="1" parent="1">
          <mxGeometry x="400" y="230" width="10" height="10" as="geometry" />
        </mxCell>
        <mxCell id="_hEubleAi91EJIuYK54v-6" value="" style="ellipse;whiteSpace=wrap;html=1;aspect=fixed;" vertex="1" parent="1">
          <mxGeometry x="280" y="350" width="10" height="10" as="geometry" />
        </mxCell>
        <mxCell id="_hEubleAi91EJIuYK54v-13" value="" style="endArrow=none;html=1;rounded=0;" edge="1" parent="1" source="_hEubleAi91EJIuYK54v-6" target="_hEubleAi91EJIuYK54v-7">
          <mxGeometry width="50" height="50" relative="1" as="geometry">
            <mxPoint x="289" y="351" as="sourcePoint" />
            <mxPoint x="400" y="240" as="targetPoint" />
          </mxGeometry>
        </mxCell>
        <mxCell id="_hEubleAi91EJIuYK54v-7" value="" style="ellipse;whiteSpace=wrap;html=1;aspect=fixed;" vertex="1" parent="1">
          <mxGeometry x="320" y="310" width="10" height="10" as="geometry" />
        </mxCell>
        <mxCell id="_hEubleAi91EJIuYK54v-15" value="" style="endArrow=none;html=1;rounded=0;" edge="1" parent="1" source="_hEubleAi91EJIuYK54v-7" target="_hEubleAi91EJIuYK54v-8">
          <mxGeometry width="50" height="50" relative="1" as="geometry">
            <mxPoint x="329" y="311" as="sourcePoint" />
            <mxPoint x="400" y="240" as="targetPoint" />
          </mxGeometry>
        </mxCell>
        <mxCell id="_hEubleAi91EJIuYK54v-8" value="" style="ellipse;whiteSpace=wrap;html=1;aspect=fixed;" vertex="1" parent="1">
          <mxGeometry x="360" y="270" width="10" height="10" as="geometry" />
        </mxCell>
        <mxCell id="_hEubleAi91EJIuYK54v-16" value="" style="endArrow=none;html=1;rounded=0;entryX=0;entryY=1;entryDx=0;entryDy=0;" edge="1" parent="1" source="_hEubleAi91EJIuYK54v-5" target="_hEubleAi91EJIuYK54v-6">
          <mxGeometry width="50" height="50" relative="1" as="geometry">
            <mxPoint x="200" y="440" as="sourcePoint" />
            <mxPoint x="360" y="380" as="targetPoint" />
          </mxGeometry>
        </mxCell>
        <mxCell id="_hEubleAi91EJIuYK54v-17" value="" style="endArrow=none;html=1;rounded=0;entryX=0;entryY=1;entryDx=0;entryDy=0;" edge="1" parent="1" target="_hEubleAi91EJIuYK54v-5">
          <mxGeometry width="50" height="50" relative="1" as="geometry">
            <mxPoint x="200" y="440" as="sourcePoint" />
            <mxPoint x="281" y="359" as="targetPoint" />
          </mxGeometry>
        </mxCell>
        <mxCell id="_hEubleAi91EJIuYK54v-5" value="" style="ellipse;whiteSpace=wrap;html=1;aspect=fixed;" vertex="1" parent="1">
          <mxGeometry x="240" y="390" width="10" height="10" as="geometry" />
        </mxCell>
        <mxCell id="_hEubleAi91EJIuYK54v-20" value="Elements" style="text;html=1;align=center;verticalAlign=middle;whiteSpace=wrap;rounded=0;" vertex="1" parent="1">
          <mxGeometry x="290" y="450" width="115" height="40" as="geometry" />
        </mxCell>
        <mxCell id="_hEubleAi91EJIuYK54v-21" value="Number of Operations" style="text;html=1;align=center;verticalAlign=middle;whiteSpace=wrap;rounded=0;rotation=270;" vertex="1" parent="1">
          <mxGeometry x="70" y="280" width="190" height="30" as="geometry" />
        </mxCell>
      </root>
    </mxGraphModel>
  </diagram>
</mxfile>
